<?xml version="1.0" encoding="UTF-8" standalone="no"?>
<svg
   width="24"
   height="24"
   viewBox="0 0 24 24"
   version="1.1"
   id="svg4"
   sodipodi:docname="star-filled.svg"
   inkscape:version="1.1.1 (3bf5ae0d25, 2021-09-20)"
   xmlns:inkscape="http://www.inkscape.org/namespaces/inkscape"
   xmlns:sodipodi="http://sodipodi.sourceforge.net/DTD/sodipodi-0.dtd"
   xmlns="http://www.w3.org/2000/svg"
   xmlns:svg="http://www.w3.org/2000/svg">
  <defs
     id="defs8" />
  <sodipodi:namedview
     id="namedview6"
     pagecolor="#ffffff"
     bordercolor="#999999"
     borderopacity="1"
     inkscape:pageshadow="0"
     inkscape:pageopacity="0"
     inkscape:pagecheckerboard="0"
     showgrid="false"
     inkscape:zoom="29.958333"
     inkscape:cx="12"
     inkscape:cy="11.833102"
     inkscape:window-width="2560"
     inkscape:window-height="1506"
     inkscape:window-x="-11"
     inkscape:window-y="-11"
     inkscape:window-maximized="1"
     inkscape:current-layer="svg4" />
  <path
     d="M12 .587l3.668 7.568 8.332 1.151-6.064 5.828 1.48 8.279-7.416-3.967-7.417 3.967 1.481-8.279-6.064-5.828 8.332-1.151z"
     id="path2" />
  <path
     style="fill:#ffcc00;stroke:#000000;stroke-width:0.0334323"
     d="m 4.6230876,23.318268 c 0,-0.01695 0.3219926,-1.830725 0.7155392,-4.030598 0.3935466,-2.199874 0.7202503,-4.038313 0.7260083,-4.085421 0.00912,-0.07465 -0.3745118,-0.455765 -2.9853583,-2.965783 C 1.4315716,10.652394 0.08344924,9.3463884 0.08344924,9.3342312 0.08344924,9.3220743 1.9197497,9.059552 4.1641168,8.750849 6.408484,8.4421459 8.2689423,8.1828808 8.2984687,8.1747048 8.3312609,8.1656241 8.875942,7.0786939 9.6980819,5.3817276 10.438343,3.8537663 11.259567,2.1612325 11.523025,1.6205414 L 12.002038,0.63746661 13.821062,4.389611 c 1.000463,2.0636796 1.83235,3.7603053 1.848637,3.7702795 0.01629,0.00997 1.878492,0.2729464 4.138233,0.5843837 2.25974,0.3114368 4.108619,0.576758 4.108619,0.5896029 0,0.012845 -1.348123,1.3196589 -2.995828,2.9040319 -2.597526,2.497687 -2.994425,2.891934 -2.985283,2.965335 0.0058,0.04656 0.333626,1.892295 0.728503,4.101632 0.394878,2.209338 0.710605,4.024331 0.701617,4.03332 -0.009,0.009 -1.660821,-0.863603 -3.67074,-1.939091 -2.009918,-1.075488 -3.672287,-1.955433 -3.694153,-1.955433 -0.02187,0 -1.682291,0.87872 -3.6898338,1.952712 -2.0075423,1.073992 -3.6585524,1.952712 -3.6689111,1.952712 -0.010359,0 -0.018835,-0.01387 -0.018835,-0.03083 z"
     id="path84" />
</svg>
