<?xml version="1.0" encoding="UTF-8" standalone="no"?>
<svg
   width="24"
   height="24"
   fill-rule="evenodd"
   clip-rule="evenodd"
   version="1.1"
   id="svg4"
   sodipodi:docname="star-thin.svg"
   inkscape:version="1.1.1 (3bf5ae0d25, 2021-09-20)"
   xmlns:inkscape="http://www.inkscape.org/namespaces/inkscape"
   xmlns:sodipodi="http://sodipodi.sourceforge.net/DTD/sodipodi-0.dtd"
   xmlns="http://www.w3.org/2000/svg"
   xmlns:svg="http://www.w3.org/2000/svg">
  <defs
     id="defs8" />
  <sodipodi:namedview
     id="namedview6"
     pagecolor="#ffffff"
     bordercolor="#999999"
     borderopacity="1"
     inkscape:pageshadow="0"
     inkscape:pageopacity="0"
     inkscape:pagecheckerboard="0"
     showgrid="false"
     inkscape:zoom="29.958333"
     inkscape:cx="12"
     inkscape:cy="11.833102"
     inkscape:window-width="2560"
     inkscape:window-height="1506"
     inkscape:window-x="-11"
     inkscape:window-y="-11"
     inkscape:window-maximized="1"
     inkscape:current-layer="svg4" />
  <path
     d="M15.668 8.626l8.332 1.159-6.065 5.874 1.48 8.341-7.416-3.997-7.416 3.997 1.481-8.341-6.064-5.874 8.331-1.159 3.668-7.626 3.669 7.626zm-6.67.925l-6.818.948 4.963 4.807-1.212 6.825 6.068-3.271 6.069 3.271-1.212-6.826 4.964-4.806-6.819-.948-3.002-6.241-3.001 6.241z"
     id="path2" />
  <path
     style="fill:#ffcc00;stroke:#000000;stroke-width:0.0334323"
     d="m 4.6230876,23.913313 c 0,-0.04573 1.4325844,-8.135657 1.4535765,-8.208468 C 6.0860959,15.672133 5.0338197,14.630718 3.074887,12.734053 1.4159222,11.12782 0.07544689,9.8072358 0.09605305,9.7994203 0.1166592,9.7916051 1.9810848,9.5281429 4.2392211,9.2139485 L 8.3449235,8.6426857 10.162641,4.8637629 c 0.999745,-2.0784076 1.826244,-3.7789228 1.836664,-3.7789228 0.01042,0 0.837231,1.7002114 1.837358,3.7782475 l 1.818413,3.7782479 4.133526,0.5750273 c 2.273439,0.316265 4.138262,0.5800313 4.144052,0.5861471 0.0058,0.00612 -1.346816,1.3249291 -3.00579,2.9306961 -2.419019,2.341435 -3.013201,2.933023 -3.000578,2.987482 0.0484,0.208836 1.450971,8.177936 1.443233,8.200145 -0.0051,0.01468 -1.665459,-0.866046 -3.689657,-1.957159 L 11.9995,19.979832 8.4161765,21.911502 c -4.2218013,2.275855 -3.7930889,2.049601 -3.7930889,2.001811 z m 4.4979201,-3.478207 2.8790053,-1.552155 3.027014,1.631643 c 1.664857,0.897404 3.033613,1.625044 3.041678,1.616979 0.01199,-0.01199 -1.129391,-6.521346 -1.182551,-6.744149 -0.01286,-0.05389 0.481109,-0.548152 2.468636,-2.470097 1.366591,-1.321498 2.475135,-2.411894 2.463431,-2.423103 -0.01171,-0.01121 -1.515857,-0.226571 -3.34256,-0.478583 C 16.648957,9.7636283 15.122159,9.5500079 15.082777,9.5409293 15.025054,9.5276225 14.720899,8.920069 13.513931,6.4071435 12.690448,4.6926402 12.009179,3.2897573 12,3.2896256 11.990821,3.2894954 11.317434,4.6757858 10.503586,6.3702743 9.689738,8.0647627 9.0118271,9.470635 8.997118,9.494435 8.978909,9.523897 7.8879245,9.6882726 5.578775,10.009466 c -1.8653792,0.259467 -3.3917639,0.483007 -3.3919657,0.496755 -2.003e-4,0.01375 0.9872383,0.980844 2.1943116,2.149101 1.2070735,1.168256 2.3179373,2.24602 2.4685862,2.39503 l 0.2739075,0.270928 -0.5993595,3.371155 c -0.3296475,1.854136 -0.5993594,3.390272 -0.5993594,3.413637 0,0.05507 -0.1791418,0.148732 3.196112,-1.670966 z"
     id="path84" />
</svg>
